<?xml version="1.0" encoding="UTF-8"?>
<!DOCTYPE svg PUBLIC "-//W3C//DTD SVG 1.1//EN" "http://www.w3.org/Graphics/SVG/1.1/DTD/svg11.dtd">
<svg version="1.1" xmlns="http://www.w3.org/2000/svg" xmlns:xlink="http://www.w3.org/1999/xlink" x="0" y="0" width="50" height="50" viewBox="0, 0, 50, 50">
  <g id="Livello_1">
    <path d="M25,-0 C38.807,-0 50,11.193 50,25 C50,38.807 38.807,50 25,50 C11.193,50 0,38.807 0,25 C0,11.193 11.193,-0 25,-0 z M27.453,8.859 C21.942,8.859 20.687,12.985 20.687,15.625 L20.687,19.312 L17.5,19.312 L17.5,25.012 L20.687,25.012 C20.687,32.327 20.687,41.141 20.687,41.141 L27.392,41.141 C27.392,41.141 27.392,32.24 27.392,25.012 L31.915,25.012 L32.5,19.312 L27.392,19.312 L27.392,15.962 C27.392,14.704 28.225,14.41 28.813,14.41 C29.399,14.41 32.418,14.41 32.418,14.41 L32.418,8.879 L27.453,8.859 z" fill="#FFFFFF"/>
  </g>
</svg>
