<?xml version="1.0" encoding="UTF-8"?>
<!DOCTYPE svg PUBLIC "-//W3C//DTD SVG 1.1//EN" "http://www.w3.org/Graphics/SVG/1.1/DTD/svg11.dtd">
<svg version="1.1" xmlns="http://www.w3.org/2000/svg" xmlns:xlink="http://www.w3.org/1999/xlink" x="0" y="0" width="50" height="50" viewBox="0, 0, 50, 50">
  <g id="Livello_1">
    <path d="M25,-0 C38.807,0 50,11.193 50,25 C50,38.807 38.807,50 25,50 C11.193,50 0,38.807 0,25 C0,11.193 11.193,0 25,0 z M30.917,12.5 C27.432,12.5 24.606,15.326 24.606,18.812 C24.606,19.305 24.662,19.787 24.77,20.25 C19.524,19.986 14.873,17.474 11.76,13.655 C11.217,14.587 10.906,15.671 10.906,16.829 C10.906,19.018 12.02,20.95 13.714,22.082 C12.68,22.049 11.706,21.765 10.855,21.292 C10.854,21.318 10.854,21.345 10.854,21.372 C10.854,24.429 13.03,26.98 15.917,27.56 C15.388,27.704 14.83,27.781 14.254,27.781 C13.847,27.781 13.452,27.742 13.067,27.668 C13.87,30.175 16.201,32 18.962,32.051 C16.802,33.744 14.081,34.753 11.124,34.753 C10.615,34.753 10.112,34.723 9.618,34.664 C12.412,36.456 15.729,37.5 19.293,37.5 C30.903,37.5 37.251,27.883 37.251,19.543 C37.251,19.269 37.245,18.996 37.233,18.725 C38.466,17.837 39.536,16.725 40.382,15.459 C39.251,15.962 38.034,16.301 36.757,16.453 C38.06,15.672 39.06,14.436 39.532,12.961 C38.312,13.685 36.962,14.21 35.524,14.493 C34.373,13.267 32.732,12.5 30.917,12.5 z" fill="#FFFFFF"/>
  </g>
</svg>
